<svg id="Layer_1" data-name="Layer 1" xmlns="http://www.w3.org/2000/svg" viewBox="0 0 640 640"><defs><style>.cls-1{fill:#1b75bc;}</style></defs><path class="cls-1" d="M473.78,147H166.22a38.44,38.44,0,0,0-38.44,38.44v76.89a38.44,38.44,0,0,0,38.44,38.45H473.78a38.44,38.44,0,0,0,38.44-38.45V185.44A38.44,38.44,0,0,0,473.78,147ZM166.22,262.33V185.44H473.78v76.89Zm307.56,76.89H166.22a38.44,38.44,0,0,0-38.44,38.45v76.89A38.44,38.44,0,0,0,166.22,493H473.78a38.44,38.44,0,0,0,38.44-38.44V377.67A38.44,38.44,0,0,0,473.78,339.22ZM166.22,454.56V377.67H473.78v76.89Z"/><path class="cls-1" d="M416.11,204.67h38.45v38.44H416.11Zm-57.67,0h38.45v38.44H358.44Zm57.67,192.22h38.45v38.44H416.11Zm-57.67,0h38.45v38.44H358.44Z"/><path class="cls-1" d="M320,38A282.09,282.09,0,0,1,429.76,579.85,282.08,282.08,0,0,1,210.24,60.15,280.15,280.15,0,0,1,320,38m0-38C143.27,0,0,143.27,0,320S143.27,640,320,640,640,496.73,640,320,496.73,0,320,0Z"/></svg>